<?xml version="1.0" standalone="no"?>
<!DOCTYPE svg PUBLIC "-//W3C//DTD SVG 1.1//EN" "http://www.w3.org/Graphics/SVG/1.1/DTD/svg11.dtd">
<svg width="800" height="600" version="1.1" xmlns="http://www.w3.org/2000/svg">
<rect width="800" height="600" x="0" y="0" style="fill:rgb(238,238,238);stroke:none"/>
<rect width="800" height="600" x="0" y="0" style="fill:rgb(255,255,255);stroke:none"/>
<text x="2" y="566" fill="rgb(0,0,0)" font-family="Arial" font-size="12">0</text>
<text x="2" y="513" fill="rgb(0,0,0)" font-family="Arial" font-size="12">10000</text>
<text x="2" y="460" fill="rgb(0,0,0)" font-family="Arial" font-size="12">20000</text>
<text x="2" y="407" fill="rgb(0,0,0)" font-family="Arial" font-size="12">30000</text>
<text x="2" y="354" fill="rgb(0,0,0)" font-family="Arial" font-size="12">40000</text>
<text x="2" y="301" fill="rgb(0,0,0)" font-family="Arial" font-size="12">50000</text>
<text x="2" y="248" fill="rgb(0,0,0)" font-family="Arial" font-size="12">60000</text>
<text x="2" y="195" fill="rgb(0,0,0)" font-family="Arial" font-size="12">70000</text>
<text x="2" y="141" fill="rgb(0,0,0)" font-family="Arial" font-size="12">80000</text>
<text x="2" y="88" fill="rgb(0,0,0)" font-family="Arial" font-size="12">90000</text>
<text x="278" y="30" fill="rgb(0,0,0)" font-family="Arial" font-size="12">Quality score distribution over all sequences</text>
<line x1="45" y1="560" x2="790" y2="560" stroke="rgb(0,0,0)" stroke-width="1"/>
<line x1="45" y1="560" x2="45" y2="40" stroke="rgb(0,0,0)" stroke-width="1"/>
<text x="281" y="595" fill="rgb(0,0,0)" font-family="Arial" font-size="12">Mean Sequence Quality (Phred Score)</text>
<text x="56" y="575" fill="rgb(0,0,0)" font-family="Arial" font-size="12">19</text>
<rect width="39" height="520" x="84" y="40" style="fill:rgb(230,230,230);stroke:none"/>
<text x="95" y="575" fill="rgb(0,0,0)" font-family="Arial" font-size="12">20</text>
<text x="134" y="575" fill="rgb(0,0,0)" font-family="Arial" font-size="12">21</text>
<rect width="39" height="520" x="162" y="40" style="fill:rgb(230,230,230);stroke:none"/>
<text x="173" y="575" fill="rgb(0,0,0)" font-family="Arial" font-size="12">22</text>
<text x="212" y="575" fill="rgb(0,0,0)" font-family="Arial" font-size="12">23</text>
<rect width="39" height="520" x="240" y="40" style="fill:rgb(230,230,230);stroke:none"/>
<text x="251" y="575" fill="rgb(0,0,0)" font-family="Arial" font-size="12">24</text>
<text x="290" y="575" fill="rgb(0,0,0)" font-family="Arial" font-size="12">25</text>
<rect width="39" height="520" x="318" y="40" style="fill:rgb(230,230,230);stroke:none"/>
<text x="329" y="575" fill="rgb(0,0,0)" font-family="Arial" font-size="12">26</text>
<text x="368" y="575" fill="rgb(0,0,0)" font-family="Arial" font-size="12">27</text>
<rect width="39" height="520" x="396" y="40" style="fill:rgb(230,230,230);stroke:none"/>
<text x="407" y="575" fill="rgb(0,0,0)" font-family="Arial" font-size="12">28</text>
<text x="446" y="575" fill="rgb(0,0,0)" font-family="Arial" font-size="12">29</text>
<rect width="39" height="520" x="474" y="40" style="fill:rgb(230,230,230);stroke:none"/>
<text x="485" y="575" fill="rgb(0,0,0)" font-family="Arial" font-size="12">30</text>
<text x="524" y="575" fill="rgb(0,0,0)" font-family="Arial" font-size="12">31</text>
<rect width="39" height="520" x="552" y="40" style="fill:rgb(230,230,230);stroke:none"/>
<text x="563" y="575" fill="rgb(0,0,0)" font-family="Arial" font-size="12">32</text>
<text x="602" y="575" fill="rgb(0,0,0)" font-family="Arial" font-size="12">33</text>
<rect width="39" height="520" x="630" y="40" style="fill:rgb(230,230,230);stroke:none"/>
<text x="641" y="575" fill="rgb(0,0,0)" font-family="Arial" font-size="12">34</text>
<text x="680" y="575" fill="rgb(0,0,0)" font-family="Arial" font-size="12">35</text>
<rect width="39" height="520" x="708" y="40" style="fill:rgb(230,230,230);stroke:none"/>
<text x="719" y="575" fill="rgb(0,0,0)" font-family="Arial" font-size="12">36</text>
<text x="758" y="575" fill="rgb(0,0,0)" font-family="Arial" font-size="12">37</text>
<line x1="45" y1="560" x2="790" y2="560" stroke="rgb(180,180,180)" stroke-width="1"/>
<line x1="45" y1="507" x2="790" y2="507" stroke="rgb(180,180,180)" stroke-width="1"/>
<line x1="45" y1="454" x2="790" y2="454" stroke="rgb(180,180,180)" stroke-width="1"/>
<line x1="45" y1="401" x2="790" y2="401" stroke="rgb(180,180,180)" stroke-width="1"/>
<line x1="45" y1="348" x2="790" y2="348" stroke="rgb(180,180,180)" stroke-width="1"/>
<line x1="45" y1="295" x2="790" y2="295" stroke="rgb(180,180,180)" stroke-width="1"/>
<line x1="45" y1="242" x2="790" y2="242" stroke="rgb(180,180,180)" stroke-width="1"/>
<line x1="45" y1="189" x2="790" y2="189" stroke="rgb(180,180,180)" stroke-width="1"/>
<line x1="45" y1="135" x2="790" y2="135" stroke="rgb(180,180,180)" stroke-width="1"/>
<line x1="45" y1="82" x2="790" y2="82" stroke="rgb(180,180,180)" stroke-width="1"/>
<line x1="64" y1="560" x2="103" y2="560" stroke="rgb(136,34,85)" stroke-width="1"/>
<line x1="103" y1="560" x2="142" y2="560" stroke="rgb(136,34,85)" stroke-width="1"/>
<line x1="142" y1="560" x2="181" y2="560" stroke="rgb(136,34,85)" stroke-width="1"/>
<line x1="181" y1="560" x2="220" y2="560" stroke="rgb(136,34,85)" stroke-width="1"/>
<line x1="220" y1="560" x2="259" y2="560" stroke="rgb(136,34,85)" stroke-width="1"/>
<line x1="259" y1="560" x2="298" y2="560" stroke="rgb(136,34,85)" stroke-width="1"/>
<line x1="298" y1="560" x2="337" y2="559" stroke="rgb(136,34,85)" stroke-width="1"/>
<line x1="337" y1="559" x2="376" y2="559" stroke="rgb(136,34,85)" stroke-width="1"/>
<line x1="376" y1="559" x2="415" y2="558" stroke="rgb(136,34,85)" stroke-width="1"/>
<line x1="415" y1="558" x2="454" y2="557" stroke="rgb(136,34,85)" stroke-width="1"/>
<line x1="454" y1="557" x2="493" y2="556" stroke="rgb(136,34,85)" stroke-width="1"/>
<line x1="493" y1="556" x2="532" y2="554" stroke="rgb(136,34,85)" stroke-width="1"/>
<line x1="532" y1="554" x2="571" y2="551" stroke="rgb(136,34,85)" stroke-width="1"/>
<line x1="571" y1="551" x2="610" y2="547" stroke="rgb(136,34,85)" stroke-width="1"/>
<line x1="610" y1="547" x2="649" y2="536" stroke="rgb(136,34,85)" stroke-width="1"/>
<line x1="649" y1="536" x2="688" y2="494" stroke="rgb(136,34,85)" stroke-width="1"/>
<line x1="688" y1="494" x2="727" y2="40" stroke="rgb(136,34,85)" stroke-width="1"/>
<line x1="727" y1="40" x2="766" y2="401" stroke="rgb(136,34,85)" stroke-width="1"/>
<rect width="183" height="23" x="607" y="40" style="fill:rgb(255,255,255);stroke:none"/>
<rect width="183" height="23" x="607" y="40" rx="0" ry="0" style="fill:none;stroke-width:1;stroke:rgb(192,192,192)"/>
<text x="610" y="55" fill="rgb(136,34,85)" font-family="Arial" font-size="12" font-weight="bold">Average Quality per read</text>
</svg>
