<?xml version="1.0" standalone="no"?>
<!DOCTYPE svg PUBLIC "-//W3C//DTD SVG 1.1//EN" "http://www.w3.org/Graphics/SVG/1.1/DTD/svg11.dtd">
<svg width="800" height="600" version="1.1" xmlns="http://www.w3.org/2000/svg">
<rect width="800" height="600" x="0" y="0" style="fill:rgb(238,238,238);stroke:none"/>
<rect width="800" height="600" x="0" y="0" style="fill:rgb(255,255,255);stroke:none"/>
<text x="2" y="566" fill="rgb(0,0,0)" font-family="Arial" font-size="12">0</text>
<text x="2" y="497" fill="rgb(0,0,0)" font-family="Arial" font-size="12">20000</text>
<text x="2" y="428" fill="rgb(0,0,0)" font-family="Arial" font-size="12">40000</text>
<text x="2" y="359" fill="rgb(0,0,0)" font-family="Arial" font-size="12">60000</text>
<text x="2" y="289" fill="rgb(0,0,0)" font-family="Arial" font-size="12">80000</text>
<text x="2" y="220" fill="rgb(0,0,0)" font-family="Arial" font-size="12">100000</text>
<text x="2" y="151" fill="rgb(0,0,0)" font-family="Arial" font-size="12">120000</text>
<text x="2" y="81" fill="rgb(0,0,0)" font-family="Arial" font-size="12">140000</text>
<text x="258" y="30" fill="rgb(0,0,0)" font-family="Arial" font-size="12">Distribution of sequence lengths over all sequences</text>
<line x1="53" y1="560" x2="790" y2="560" stroke="rgb(0,0,0)" stroke-width="1"/>
<line x1="53" y1="560" x2="53" y2="40" stroke="rgb(0,0,0)" stroke-width="1"/>
<text x="330" y="595" fill="rgb(0,0,0)" font-family="Arial" font-size="12">Sequence Length (bp)</text>
<text x="43" y="575" fill="rgb(0,0,0)" font-family="Arial" font-size="12">30-34</text>
<rect width="16" height="520" x="69" y="40" style="fill:rgb(230,230,230);stroke:none"/>
<rect width="16" height="520" x="101" y="40" style="fill:rgb(230,230,230);stroke:none"/>
<text x="91" y="575" fill="rgb(0,0,0)" font-family="Arial" font-size="12">45-49</text>
<rect width="16" height="520" x="133" y="40" style="fill:rgb(230,230,230);stroke:none"/>
<text x="139" y="575" fill="rgb(0,0,0)" font-family="Arial" font-size="12">60-64</text>
<rect width="16" height="520" x="165" y="40" style="fill:rgb(230,230,230);stroke:none"/>
<rect width="16" height="520" x="197" y="40" style="fill:rgb(230,230,230);stroke:none"/>
<text x="187" y="575" fill="rgb(0,0,0)" font-family="Arial" font-size="12">75-79</text>
<rect width="16" height="520" x="229" y="40" style="fill:rgb(230,230,230);stroke:none"/>
<text x="235" y="575" fill="rgb(0,0,0)" font-family="Arial" font-size="12">90-94</text>
<rect width="16" height="520" x="261" y="40" style="fill:rgb(230,230,230);stroke:none"/>
<rect width="16" height="520" x="293" y="40" style="fill:rgb(230,230,230);stroke:none"/>
<text x="291" y="575" fill="rgb(0,0,0)" font-family="Arial" font-size="12">110-114</text>
<rect width="16" height="520" x="325" y="40" style="fill:rgb(230,230,230);stroke:none"/>
<rect width="16" height="520" x="357" y="40" style="fill:rgb(230,230,230);stroke:none"/>
<text x="355" y="575" fill="rgb(0,0,0)" font-family="Arial" font-size="12">130-134</text>
<rect width="16" height="520" x="389" y="40" style="fill:rgb(230,230,230);stroke:none"/>
<rect width="16" height="520" x="421" y="40" style="fill:rgb(230,230,230);stroke:none"/>
<text x="419" y="575" fill="rgb(0,0,0)" font-family="Arial" font-size="12">150-154</text>
<rect width="16" height="520" x="453" y="40" style="fill:rgb(230,230,230);stroke:none"/>
<rect width="16" height="520" x="485" y="40" style="fill:rgb(230,230,230);stroke:none"/>
<text x="483" y="575" fill="rgb(0,0,0)" font-family="Arial" font-size="12">170-174</text>
<rect width="16" height="520" x="517" y="40" style="fill:rgb(230,230,230);stroke:none"/>
<rect width="16" height="520" x="549" y="40" style="fill:rgb(230,230,230);stroke:none"/>
<text x="547" y="575" fill="rgb(0,0,0)" font-family="Arial" font-size="12">190-194</text>
<rect width="16" height="520" x="581" y="40" style="fill:rgb(230,230,230);stroke:none"/>
<rect width="16" height="520" x="613" y="40" style="fill:rgb(230,230,230);stroke:none"/>
<text x="611" y="575" fill="rgb(0,0,0)" font-family="Arial" font-size="12">210-214</text>
<rect width="16" height="520" x="645" y="40" style="fill:rgb(230,230,230);stroke:none"/>
<rect width="16" height="520" x="677" y="40" style="fill:rgb(230,230,230);stroke:none"/>
<text x="675" y="575" fill="rgb(0,0,0)" font-family="Arial" font-size="12">230-234</text>
<rect width="16" height="520" x="709" y="40" style="fill:rgb(230,230,230);stroke:none"/>
<rect width="16" height="520" x="741" y="40" style="fill:rgb(230,230,230);stroke:none"/>
<text x="739" y="575" fill="rgb(0,0,0)" font-family="Arial" font-size="12">250-251</text>
<line x1="53" y1="560" x2="790" y2="560" stroke="rgb(180,180,180)" stroke-width="1"/>
<line x1="53" y1="491" x2="790" y2="491" stroke="rgb(180,180,180)" stroke-width="1"/>
<line x1="53" y1="422" x2="790" y2="422" stroke="rgb(180,180,180)" stroke-width="1"/>
<line x1="53" y1="353" x2="790" y2="353" stroke="rgb(180,180,180)" stroke-width="1"/>
<line x1="53" y1="283" x2="790" y2="283" stroke="rgb(180,180,180)" stroke-width="1"/>
<line x1="53" y1="214" x2="790" y2="214" stroke="rgb(180,180,180)" stroke-width="1"/>
<line x1="53" y1="145" x2="790" y2="145" stroke="rgb(180,180,180)" stroke-width="1"/>
<line x1="53" y1="75" x2="790" y2="75" stroke="rgb(180,180,180)" stroke-width="1"/>
<line x1="61" y1="560" x2="77" y2="558" stroke="rgb(136,34,85)" stroke-width="1"/>
<line x1="77" y1="558" x2="93" y2="560" stroke="rgb(136,34,85)" stroke-width="1"/>
<line x1="93" y1="560" x2="109" y2="560" stroke="rgb(136,34,85)" stroke-width="1"/>
<line x1="109" y1="560" x2="125" y2="557" stroke="rgb(136,34,85)" stroke-width="1"/>
<line x1="125" y1="557" x2="141" y2="540" stroke="rgb(136,34,85)" stroke-width="1"/>
<line x1="141" y1="540" x2="157" y2="529" stroke="rgb(136,34,85)" stroke-width="1"/>
<line x1="157" y1="529" x2="173" y2="546" stroke="rgb(136,34,85)" stroke-width="1"/>
<line x1="173" y1="546" x2="189" y2="529" stroke="rgb(136,34,85)" stroke-width="1"/>
<line x1="189" y1="529" x2="205" y2="545" stroke="rgb(136,34,85)" stroke-width="1"/>
<line x1="205" y1="545" x2="221" y2="550" stroke="rgb(136,34,85)" stroke-width="1"/>
<line x1="221" y1="550" x2="237" y2="541" stroke="rgb(136,34,85)" stroke-width="1"/>
<line x1="237" y1="541" x2="253" y2="559" stroke="rgb(136,34,85)" stroke-width="1"/>
<line x1="253" y1="559" x2="269" y2="560" stroke="rgb(136,34,85)" stroke-width="1"/>
<line x1="269" y1="560" x2="285" y2="559" stroke="rgb(136,34,85)" stroke-width="1"/>
<line x1="285" y1="559" x2="301" y2="556" stroke="rgb(136,34,85)" stroke-width="1"/>
<line x1="301" y1="556" x2="317" y2="556" stroke="rgb(136,34,85)" stroke-width="1"/>
<line x1="317" y1="556" x2="333" y2="556" stroke="rgb(136,34,85)" stroke-width="1"/>
<line x1="333" y1="556" x2="349" y2="555" stroke="rgb(136,34,85)" stroke-width="1"/>
<line x1="349" y1="555" x2="365" y2="558" stroke="rgb(136,34,85)" stroke-width="1"/>
<line x1="365" y1="558" x2="381" y2="559" stroke="rgb(136,34,85)" stroke-width="1"/>
<line x1="381" y1="559" x2="397" y2="559" stroke="rgb(136,34,85)" stroke-width="1"/>
<line x1="397" y1="559" x2="413" y2="560" stroke="rgb(136,34,85)" stroke-width="1"/>
<line x1="413" y1="560" x2="429" y2="560" stroke="rgb(136,34,85)" stroke-width="1"/>
<line x1="429" y1="560" x2="445" y2="560" stroke="rgb(136,34,85)" stroke-width="1"/>
<line x1="445" y1="560" x2="461" y2="560" stroke="rgb(136,34,85)" stroke-width="1"/>
<line x1="461" y1="560" x2="477" y2="560" stroke="rgb(136,34,85)" stroke-width="1"/>
<line x1="477" y1="560" x2="493" y2="560" stroke="rgb(136,34,85)" stroke-width="1"/>
<line x1="493" y1="560" x2="509" y2="560" stroke="rgb(136,34,85)" stroke-width="1"/>
<line x1="509" y1="560" x2="525" y2="560" stroke="rgb(136,34,85)" stroke-width="1"/>
<line x1="525" y1="560" x2="541" y2="560" stroke="rgb(136,34,85)" stroke-width="1"/>
<line x1="541" y1="560" x2="557" y2="560" stroke="rgb(136,34,85)" stroke-width="1"/>
<line x1="557" y1="560" x2="573" y2="560" stroke="rgb(136,34,85)" stroke-width="1"/>
<line x1="573" y1="560" x2="589" y2="560" stroke="rgb(136,34,85)" stroke-width="1"/>
<line x1="589" y1="560" x2="605" y2="560" stroke="rgb(136,34,85)" stroke-width="1"/>
<line x1="605" y1="560" x2="621" y2="560" stroke="rgb(136,34,85)" stroke-width="1"/>
<line x1="621" y1="560" x2="637" y2="560" stroke="rgb(136,34,85)" stroke-width="1"/>
<line x1="637" y1="560" x2="653" y2="560" stroke="rgb(136,34,85)" stroke-width="1"/>
<line x1="653" y1="560" x2="669" y2="560" stroke="rgb(136,34,85)" stroke-width="1"/>
<line x1="669" y1="560" x2="685" y2="560" stroke="rgb(136,34,85)" stroke-width="1"/>
<line x1="685" y1="560" x2="701" y2="560" stroke="rgb(136,34,85)" stroke-width="1"/>
<line x1="701" y1="560" x2="717" y2="560" stroke="rgb(136,34,85)" stroke-width="1"/>
<line x1="717" y1="560" x2="733" y2="560" stroke="rgb(136,34,85)" stroke-width="1"/>
<line x1="733" y1="560" x2="749" y2="556" stroke="rgb(136,34,85)" stroke-width="1"/>
<line x1="749" y1="556" x2="765" y2="40" stroke="rgb(136,34,85)" stroke-width="1"/>
<rect width="130" height="23" x="660" y="40" style="fill:rgb(255,255,255);stroke:none"/>
<rect width="130" height="23" x="660" y="40" rx="0" ry="0" style="fill:none;stroke-width:1;stroke:rgb(192,192,192)"/>
<text x="663" y="55" fill="rgb(136,34,85)" font-family="Arial" font-size="12" font-weight="bold">Sequence Length</text>
</svg>
