<?xml version="1.0" standalone="no"?>
<!DOCTYPE svg PUBLIC "-//W3C//DTD SVG 1.1//EN" "http://www.w3.org/Graphics/SVG/1.1/DTD/svg11.dtd">
<svg width="800" height="600" version="1.1" xmlns="http://www.w3.org/2000/svg">
<rect width="800" height="600" x="0" y="0" style="fill:rgb(238,238,238);stroke:none"/>
<rect width="800" height="600" x="0" y="0" style="fill:rgb(255,255,255);stroke:none"/>
<text x="2" y="566" fill="rgb(0,0,0)" font-family="Arial" font-size="12">0</text>
<text x="2" y="464" fill="rgb(0,0,0)" font-family="Arial" font-size="12">20000</text>
<text x="2" y="362" fill="rgb(0,0,0)" font-family="Arial" font-size="12">40000</text>
<text x="2" y="259" fill="rgb(0,0,0)" font-family="Arial" font-size="12">60000</text>
<text x="2" y="157" fill="rgb(0,0,0)" font-family="Arial" font-size="12">80000</text>
<text x="2" y="54" fill="rgb(0,0,0)" font-family="Arial" font-size="12">100000</text>
<text x="258" y="30" fill="rgb(0,0,0)" font-family="Arial" font-size="12">Distribution of sequence lengths over all sequences</text>
<line x1="53" y1="560" x2="790" y2="560" stroke="rgb(0,0,0)" stroke-width="1"/>
<line x1="53" y1="560" x2="53" y2="40" stroke="rgb(0,0,0)" stroke-width="1"/>
<text x="330" y="595" fill="rgb(0,0,0)" font-family="Arial" font-size="12">Sequence Length (bp)</text>
<text x="46" y="575" fill="rgb(0,0,0)" font-family="Arial" font-size="12">95-99</text>
<rect width="23" height="520" x="76" y="40" style="fill:rgb(230,230,230);stroke:none"/>
<rect width="23" height="520" x="122" y="40" style="fill:rgb(230,230,230);stroke:none"/>
<text x="107" y="575" fill="rgb(0,0,0)" font-family="Arial" font-size="12">110-114</text>
<rect width="23" height="520" x="168" y="40" style="fill:rgb(230,230,230);stroke:none"/>
<text x="176" y="575" fill="rgb(0,0,0)" font-family="Arial" font-size="12">125-129</text>
<rect width="23" height="520" x="214" y="40" style="fill:rgb(230,230,230);stroke:none"/>
<rect width="23" height="520" x="260" y="40" style="fill:rgb(230,230,230);stroke:none"/>
<text x="245" y="575" fill="rgb(0,0,0)" font-family="Arial" font-size="12">140-144</text>
<rect width="23" height="520" x="306" y="40" style="fill:rgb(230,230,230);stroke:none"/>
<text x="314" y="575" fill="rgb(0,0,0)" font-family="Arial" font-size="12">155-159</text>
<rect width="23" height="520" x="352" y="40" style="fill:rgb(230,230,230);stroke:none"/>
<rect width="23" height="520" x="398" y="40" style="fill:rgb(230,230,230);stroke:none"/>
<text x="383" y="575" fill="rgb(0,0,0)" font-family="Arial" font-size="12">170-174</text>
<rect width="23" height="520" x="444" y="40" style="fill:rgb(230,230,230);stroke:none"/>
<text x="452" y="575" fill="rgb(0,0,0)" font-family="Arial" font-size="12">185-189</text>
<rect width="23" height="520" x="490" y="40" style="fill:rgb(230,230,230);stroke:none"/>
<rect width="23" height="520" x="536" y="40" style="fill:rgb(230,230,230);stroke:none"/>
<text x="521" y="575" fill="rgb(0,0,0)" font-family="Arial" font-size="12">200-204</text>
<rect width="23" height="520" x="582" y="40" style="fill:rgb(230,230,230);stroke:none"/>
<text x="590" y="575" fill="rgb(0,0,0)" font-family="Arial" font-size="12">215-219</text>
<rect width="23" height="520" x="628" y="40" style="fill:rgb(230,230,230);stroke:none"/>
<rect width="23" height="520" x="674" y="40" style="fill:rgb(230,230,230);stroke:none"/>
<text x="659" y="575" fill="rgb(0,0,0)" font-family="Arial" font-size="12">230-234</text>
<rect width="23" height="520" x="720" y="40" style="fill:rgb(230,230,230);stroke:none"/>
<text x="728" y="575" fill="rgb(0,0,0)" font-family="Arial" font-size="12">245-249</text>
<rect width="23" height="520" x="766" y="40" style="fill:rgb(230,230,230);stroke:none"/>
<line x1="53" y1="560" x2="790" y2="560" stroke="rgb(180,180,180)" stroke-width="1"/>
<line x1="53" y1="458" x2="790" y2="458" stroke="rgb(180,180,180)" stroke-width="1"/>
<line x1="53" y1="356" x2="790" y2="356" stroke="rgb(180,180,180)" stroke-width="1"/>
<line x1="53" y1="253" x2="790" y2="253" stroke="rgb(180,180,180)" stroke-width="1"/>
<line x1="53" y1="151" x2="790" y2="151" stroke="rgb(180,180,180)" stroke-width="1"/>
<line x1="53" y1="48" x2="790" y2="48" stroke="rgb(180,180,180)" stroke-width="1"/>
<line x1="64" y1="560" x2="87" y2="560" stroke="rgb(136,34,85)" stroke-width="1"/>
<line x1="87" y1="560" x2="110" y2="556" stroke="rgb(136,34,85)" stroke-width="1"/>
<line x1="110" y1="556" x2="133" y2="556" stroke="rgb(136,34,85)" stroke-width="1"/>
<line x1="133" y1="556" x2="156" y2="557" stroke="rgb(136,34,85)" stroke-width="1"/>
<line x1="156" y1="557" x2="179" y2="556" stroke="rgb(136,34,85)" stroke-width="1"/>
<line x1="179" y1="556" x2="202" y2="559" stroke="rgb(136,34,85)" stroke-width="1"/>
<line x1="202" y1="559" x2="225" y2="560" stroke="rgb(136,34,85)" stroke-width="1"/>
<line x1="225" y1="560" x2="248" y2="560" stroke="rgb(136,34,85)" stroke-width="1"/>
<line x1="248" y1="560" x2="271" y2="560" stroke="rgb(136,34,85)" stroke-width="1"/>
<line x1="271" y1="560" x2="294" y2="560" stroke="rgb(136,34,85)" stroke-width="1"/>
<line x1="294" y1="560" x2="317" y2="560" stroke="rgb(136,34,85)" stroke-width="1"/>
<line x1="317" y1="560" x2="340" y2="560" stroke="rgb(136,34,85)" stroke-width="1"/>
<line x1="340" y1="560" x2="363" y2="560" stroke="rgb(136,34,85)" stroke-width="1"/>
<line x1="363" y1="560" x2="386" y2="560" stroke="rgb(136,34,85)" stroke-width="1"/>
<line x1="386" y1="560" x2="409" y2="560" stroke="rgb(136,34,85)" stroke-width="1"/>
<line x1="409" y1="560" x2="432" y2="560" stroke="rgb(136,34,85)" stroke-width="1"/>
<line x1="432" y1="560" x2="455" y2="560" stroke="rgb(136,34,85)" stroke-width="1"/>
<line x1="455" y1="560" x2="478" y2="560" stroke="rgb(136,34,85)" stroke-width="1"/>
<line x1="478" y1="560" x2="501" y2="560" stroke="rgb(136,34,85)" stroke-width="1"/>
<line x1="501" y1="560" x2="524" y2="560" stroke="rgb(136,34,85)" stroke-width="1"/>
<line x1="524" y1="560" x2="547" y2="560" stroke="rgb(136,34,85)" stroke-width="1"/>
<line x1="547" y1="560" x2="570" y2="560" stroke="rgb(136,34,85)" stroke-width="1"/>
<line x1="570" y1="560" x2="593" y2="560" stroke="rgb(136,34,85)" stroke-width="1"/>
<line x1="593" y1="560" x2="616" y2="560" stroke="rgb(136,34,85)" stroke-width="1"/>
<line x1="616" y1="560" x2="639" y2="560" stroke="rgb(136,34,85)" stroke-width="1"/>
<line x1="639" y1="560" x2="662" y2="560" stroke="rgb(136,34,85)" stroke-width="1"/>
<line x1="662" y1="560" x2="685" y2="560" stroke="rgb(136,34,85)" stroke-width="1"/>
<line x1="685" y1="560" x2="708" y2="560" stroke="rgb(136,34,85)" stroke-width="1"/>
<line x1="708" y1="560" x2="731" y2="560" stroke="rgb(136,34,85)" stroke-width="1"/>
<line x1="731" y1="560" x2="754" y2="560" stroke="rgb(136,34,85)" stroke-width="1"/>
<line x1="754" y1="560" x2="777" y2="40" stroke="rgb(136,34,85)" stroke-width="1"/>
<rect width="130" height="23" x="660" y="40" style="fill:rgb(255,255,255);stroke:none"/>
<rect width="130" height="23" x="660" y="40" rx="0" ry="0" style="fill:none;stroke-width:1;stroke:rgb(192,192,192)"/>
<text x="663" y="55" fill="rgb(136,34,85)" font-family="Arial" font-size="12" font-weight="bold">Sequence Length</text>
</svg>
